<svg width="36" height="36" viewBox="0 0 36 36" fill="none" xmlns="http://www.w3.org/2000/svg">
<path d="M0.75 2.29167C0.75 1.70833 0.944443 1.22222 1.33333 0.833332C1.72222 0.444443 2.20833 0.249999 2.79166 0.249999L10.6667 0.249999C11.1204 0.249999 11.5177 0.395832 11.8586 0.687499C12.1982 0.979165 12.4167 1.35185 12.5139 1.80555L13.875 8.51389C13.9398 8.96759 13.8996 9.42972 13.7544 9.90028C13.608 10.3695 13.3889 10.75 13.0972 11.0417L8.52778 15.6111C10.0185 18.0741 11.7847 20.3348 13.8264 22.3933C15.8681 24.4506 18.0556 26.1597 20.3889 27.5208L25.1528 22.8056C25.4444 22.5139 25.7769 22.3272 26.1503 22.2456C26.5223 22.1652 26.9352 22.1574 27.3889 22.2222L34.1944 23.4861C34.6481 23.5509 35.0208 23.7616 35.3125 24.1181C35.6042 24.4745 35.75 24.8796 35.75 25.3333L35.75 33.2083C35.75 33.7917 35.5556 34.2778 35.1667 34.6667C34.7778 35.0556 34.2917 35.25 33.7083 35.25C29.5278 35.25 25.4529 34.318 21.4836 32.4539C17.5131 30.5911 13.9968 28.1281 10.935 25.065C7.87185 22.0031 5.40889 18.4876 3.54611 14.5183C1.68204 10.5478 0.75 6.47222 0.75 2.29167ZM24.0833 29.3681C25.3472 29.919 26.6273 30.3403 27.9236 30.6319C29.2199 30.9236 30.5324 31.1505 31.8611 31.3125L31.8611 26.9861L27.2917 26.1597L24.0833 29.3681ZM6.68055 11.9653L9.9375 8.70833L9.01389 4.13889L4.73611 4.13889C4.83333 5.46759 5.04398 6.78852 5.36806 8.10167C5.69213 9.41352 6.12963 10.7014 6.68055 11.9653Z" fill="black"/>
</svg>
