<svg width="23" height="26" viewBox="0 0 23 26" fill="none" xmlns="http://www.w3.org/2000/svg">
<path d="M17.6249 16.9844C16.9984 16.9845 16.379 17.1172 15.8075 17.3737C15.2359 17.6302 14.7251 18.0047 14.3085 18.4727L8.57803 14.7813C8.82532 14.22 8.95303 13.6134 8.95303 13C8.95303 12.3867 8.82532 11.78 8.57803 11.2188L14.3085 7.52736C15.0032 8.30264 15.9476 8.81003 16.9776 8.96135C18.0076 9.11267 19.058 8.89837 19.9464 8.35567C20.8347 7.81298 21.5049 6.97619 21.8404 5.99072C22.1759 5.00525 22.1556 3.93337 21.7829 2.96135C21.4102 1.98932 20.7088 1.17858 19.8004 0.669993C18.8921 0.161409 17.8343 -0.0128709 16.8108 0.177436C15.7873 0.367743 14.8629 0.910609 14.1981 1.7117C13.5333 2.5128 13.1701 3.52149 13.1718 4.56251C13.1679 5.17625 13.2958 5.78368 13.5468 6.34376L7.81631 10.0352C7.21555 9.36191 6.42445 8.88704 5.54778 8.67345C4.67111 8.45986 3.75023 8.51762 2.90713 8.83909C2.06402 9.16056 1.33846 9.73057 0.826547 10.4736C0.314636 11.2167 0.0405273 12.0977 0.0405273 13C0.0405273 13.9023 0.314636 14.7834 0.826547 15.5264C1.33846 16.2695 2.06402 16.8395 2.90713 17.1609C3.75023 17.4824 4.67111 17.5402 5.54778 17.3266C6.42445 17.113 7.21555 16.6381 7.81631 15.9649L13.5468 19.6563C13.2958 20.2163 13.1679 20.8238 13.1718 21.4375C13.1718 22.3183 13.4329 23.1792 13.9223 23.9115C14.4116 24.6438 15.1071 25.2146 15.9208 25.5517C16.7345 25.8887 17.6298 25.9769 18.4937 25.8051C19.3575 25.6332 20.151 25.2091 20.7737 24.5863C21.3965 23.9636 21.8206 23.1701 21.9925 22.3063C22.1643 21.4425 22.0761 20.5471 21.7391 19.7334C21.402 18.9197 20.8312 18.2242 20.0989 17.7349C19.3666 17.2456 18.5056 16.9844 17.6249 16.9844ZM17.6249 1.51564C18.2275 1.51564 18.8166 1.69433 19.3177 2.02913C19.8187 2.36392 20.2092 2.83978 20.4398 3.39652C20.6705 3.95327 20.7308 4.56589 20.6132 5.15693C20.4957 5.74796 20.2055 6.29086 19.7794 6.71698C19.3533 7.14309 18.8104 7.43328 18.2193 7.55084C17.6283 7.66841 17.0157 7.60807 16.4589 7.37746C15.9022 7.14685 15.4263 6.75632 15.0915 6.25526C14.7567 5.75421 14.578 5.16513 14.578 4.56251C14.5811 3.75538 14.9031 2.98219 15.4738 2.41146C16.0446 1.84072 16.8178 1.51872 17.6249 1.51564ZM4.4999 16.0469C3.89728 16.0469 3.3082 15.8682 2.80715 15.5334C2.30609 15.1986 1.91556 14.7227 1.68495 14.166C1.45434 13.6093 1.39401 12.9966 1.51157 12.4056C1.62913 11.8146 1.91932 11.2717 2.34543 10.8455C2.77155 10.4194 3.31445 10.1292 3.90548 10.0117C4.49652 9.89412 5.10914 9.95446 5.66589 10.1851C6.22263 10.4157 6.69849 10.8062 7.03328 11.3073C7.36808 11.8083 7.54678 12.3974 7.54678 13C7.54369 13.8071 7.22169 14.5803 6.65096 15.1511C6.08022 15.7218 5.30703 16.0438 4.4999 16.0469ZM17.6249 24.4844C17.0223 24.4844 16.4332 24.3057 15.9321 23.9709C15.4311 23.6361 15.0406 23.1602 14.81 22.6035C14.5793 22.0468 14.519 21.4341 14.6366 20.8431C14.7541 20.2521 15.0443 19.7092 15.4704 19.283C15.8965 18.8569 16.4394 18.5667 17.0305 18.4492C17.6215 18.3316 18.2341 18.392 18.7909 18.6226C19.3476 18.8532 19.8235 19.2437 20.1583 19.7448C20.4931 20.2458 20.6718 20.8349 20.6718 21.4375C20.6687 22.2446 20.3467 23.0178 19.776 23.5886C19.2052 24.1593 18.432 24.4813 17.6249 24.4844Z" fill="black"/>
</svg>
