<svg width="18" height="20" viewBox="0 0 18 20" fill="none" xmlns="http://www.w3.org/2000/svg">
<path d="M17.0625 8.5C17.0625 10.5625 16.3407 12.4562 15.0282 13.8156C13.7157 15.175 12.1594 15.8125 10.5 15.8125C8.68129 15.8125 7.54691 15.1469 6.88129 14.5375L5.79379 19.1312C5.76444 19.2536 5.69492 19.3626 5.59635 19.4407C5.49778 19.5189 5.37584 19.5618 5.25004 19.5625L5.11879 19.5438C5.04696 19.5273 4.97915 19.4966 4.91934 19.4536C4.85953 19.4105 4.80892 19.3559 4.77049 19.2931C4.73207 19.2302 4.70659 19.1602 4.69556 19.0874C4.68454 19.0145 4.68819 18.9402 4.70629 18.8688L7.70629 6.11875C7.71661 6.04056 7.74326 5.96541 7.78451 5.89819C7.82576 5.83096 7.88068 5.77316 7.94571 5.72854C8.01075 5.68392 8.08444 5.65347 8.162 5.63918C8.23957 5.62488 8.31927 5.62706 8.39594 5.64557C8.4726 5.66407 8.54452 5.69849 8.60703 5.7466C8.66953 5.7947 8.72122 5.85541 8.75873 5.92479C8.79625 5.99416 8.81876 6.07065 8.8248 6.14929C8.83084 6.22793 8.82027 6.30696 8.79379 6.38125L7.19066 13.1875C7.46254 13.6 8.36254 14.6875 10.5 14.6875C13.1719 14.6875 15.9375 12.3719 15.9375 8.5C15.9369 7.41667 15.6825 6.34855 15.1949 5.3812C14.7072 4.41384 13.9997 3.57414 13.1292 2.92935C12.2587 2.28456 11.2492 1.8526 10.1817 1.66808C9.11421 1.48356 8.01834 1.55159 6.98186 1.86674C5.94539 2.18189 4.99712 2.7354 4.21302 3.48291C3.42892 4.23043 2.83077 5.15119 2.4665 6.17144C2.10223 7.19169 1.98195 8.28307 2.1153 9.35816C2.24865 10.4332 2.63192 11.4622 3.23441 12.3625C3.27661 12.4231 3.30624 12.4916 3.32155 12.5638C3.33687 12.6361 3.33755 12.7107 3.32357 12.7832C3.30959 12.8557 3.28123 12.9247 3.24015 12.9861C3.19908 13.0475 3.14612 13.1 3.08441 13.1406C3.02379 13.1828 2.95534 13.2125 2.88308 13.2278C2.81082 13.2431 2.73623 13.2438 2.66371 13.2298C2.59118 13.2158 2.52219 13.1874 2.4608 13.1464C2.39942 13.1053 2.34688 13.0523 2.30629 12.9906C1.40946 11.6652 0.932512 10.1004 0.937539 8.5C0.937539 6.36169 1.78698 4.31096 3.29899 2.79895C4.811 1.28694 6.86173 0.4375 9.00004 0.4375C11.1383 0.4375 13.1891 1.28694 14.7011 2.79895C16.2131 4.31096 17.0625 6.36169 17.0625 8.5Z" fill="black"/>
</svg>
