<svg width="22" height="19" viewBox="0 0 22 19" fill="none" xmlns="http://www.w3.org/2000/svg">
<path d="M21.5001 1.58904C21.5001 1.50079 21.4767 1.41412 21.4323 1.33782C21.388 1.26153 21.3242 1.19833 21.2475 1.15466C21.1708 1.11098 21.084 1.08838 20.9957 1.08915C20.9075 1.08992 20.821 1.11403 20.7451 1.15904C20.0413 1.57813 19.2769 1.88577 18.4791 2.07104C17.6071 1.23856 16.4466 0.776217 15.2411 0.781043C14.5863 0.781973 13.9389 0.918808 13.3397 1.18289C12.7405 1.44697 12.2027 1.83254 11.7603 2.31522C11.3178 2.79789 10.9804 3.36714 10.7693 3.98696C10.5583 4.60678 10.4782 5.26366 10.5341 5.91604C7.5112 5.59478 4.7376 4.09243 2.81707 1.73604C2.76581 1.67344 2.70013 1.62422 2.62565 1.59259C2.55118 1.56096 2.47014 1.54789 2.3895 1.55447C2.30886 1.56106 2.23102 1.58712 2.16267 1.63042C2.09432 1.67371 2.03749 1.73295 1.99707 1.80304C1.58219 2.52653 1.36396 3.34604 1.36407 4.18004C1.36285 5.09538 1.62758 5.99135 2.12607 6.75904L2.06607 6.72604C1.98773 6.68758 1.90073 6.67013 1.81361 6.67538C1.72649 6.68064 1.64223 6.70844 1.56907 6.75604C1.49285 6.8056 1.4303 6.87351 1.38714 6.95353C1.34398 7.03355 1.32161 7.12313 1.32207 7.21404C1.31807 7.33204 1.32507 7.45104 1.34407 7.56704C1.39134 8.22727 1.57776 8.87002 1.89109 9.45307C2.20442 10.0361 2.63756 10.5463 3.16207 10.95C3.09815 10.9689 3.03863 11.0003 2.98701 11.0424C2.9354 11.0846 2.89273 11.1366 2.86152 11.1955C2.83031 11.2544 2.81119 11.3189 2.80527 11.3853C2.79935 11.4517 2.80677 11.5186 2.82707 11.582C3.05808 12.3023 3.45938 12.9563 3.99695 13.4885C4.53451 14.0206 5.19249 14.4153 5.91507 14.639C4.43956 15.4651 2.74019 15.8023 1.06107 15.602C0.948555 15.588 0.834594 15.6126 0.737892 15.6718C0.64119 15.731 0.56749 15.8213 0.528888 15.928C0.490285 16.0346 0.489072 16.1512 0.525447 16.2586C0.561822 16.366 0.633626 16.4578 0.729075 16.519C2.73852 17.8129 5.0781 18.5007 7.46807 18.5C10.1792 18.53 12.8243 17.6632 14.992 16.0345C17.1596 14.4058 18.7283 12.1064 19.4541 9.49404C19.7931 8.35704 19.9661 7.17604 19.9681 5.98904C19.9681 5.86904 19.9681 5.74404 19.9651 5.61704C20.4852 5.08821 20.8901 4.45737 21.1543 3.76429C21.4185 3.0712 21.5362 2.32989 21.5001 1.58904ZM19.0761 5.12204C18.9939 5.21917 18.9521 5.34404 18.9591 5.47104C19.0137 6.73518 18.8569 7.99956 18.4951 9.21204C17.8497 11.6283 16.4124 13.7581 14.4132 15.2607C12.414 16.7634 9.96847 17.5519 7.46807 17.5C5.9421 17.5001 4.43151 17.1951 3.02507 16.603C4.67799 16.4197 6.24601 15.7751 7.55007 14.743C7.63121 14.6793 7.69062 14.5919 7.72015 14.4931C7.74969 14.3942 7.7479 14.2886 7.71503 14.1907C7.68217 14.0929 7.61984 14.0076 7.53659 13.9466C7.45334 13.8856 7.35326 13.8519 7.25007 13.85C6.61003 13.8396 5.98357 13.6638 5.4316 13.3396C4.87962 13.0154 4.42092 12.554 4.10007 12C4.52507 12.001 4.94707 11.943 5.35407 11.826C5.46134 11.7946 5.55498 11.7281 5.62004 11.6372C5.6851 11.5463 5.71783 11.4363 5.71299 11.3246C5.70816 11.2129 5.66604 11.1061 5.59337 11.0212C5.5207 10.9362 5.42166 10.8781 5.31207 10.856C4.59626 10.7128 3.9387 10.3614 3.42189 9.84578C2.90508 9.33022 2.55204 8.67351 2.40707 7.95804C2.83176 8.09576 3.27383 8.17252 3.72007 8.18604C3.83002 8.19418 3.93935 8.16367 4.02919 8.09976C4.11902 8.03585 4.18371 7.94258 4.21207 7.83604C4.24474 7.73263 4.24289 7.6214 4.20682 7.51912C4.17074 7.41685 4.10239 7.32908 4.01207 7.26904C3.50332 6.9304 3.08648 6.47087 2.79887 5.93162C2.51127 5.39236 2.36188 4.7902 2.36407 4.17904C2.36407 3.76604 2.43107 3.35604 2.56407 2.96604C4.78111 5.36007 7.84546 6.79357 11.1041 6.96104C11.1819 6.96937 11.2606 6.95723 11.3323 6.92584C11.4041 6.89445 11.4664 6.84488 11.5131 6.78204C11.5627 6.72261 11.5978 6.65248 11.6157 6.57717C11.6335 6.50185 11.6337 6.42342 11.6161 6.34804C11.5501 6.07223 11.5165 5.78965 11.5161 5.50604C11.5171 4.51852 11.9098 3.57171 12.6079 2.87324C13.306 2.17476 14.2525 1.78163 15.2401 1.78004C15.7487 1.7786 16.2522 1.88262 16.7186 2.08555C17.1851 2.28847 17.6044 2.5859 17.9501 2.95904C18.0081 3.02097 18.081 3.06707 18.1619 3.09297C18.2427 3.11886 18.3288 3.12371 18.4121 3.10704C19.1217 2.96732 19.8117 2.74201 20.4671 2.43604C20.2967 3.45535 19.8107 4.39513 19.0761 5.12204Z" fill="black"/>
</svg>
